<mxfile host="65bd71144e">
    <diagram name="Page-1" id="LnwlIgTbzqFxvhUvmdAp">
        <mxGraphModel dx="2464" dy="5745" grid="1" gridSize="10" guides="1" tooltips="1" connect="1" arrows="1" fold="1" page="1" pageScale="1" pageWidth="3300" pageHeight="4681" math="0" shadow="0">
            <root>
                <mxCell id="0"/>
                <mxCell id="1" parent="0"/>
                <mxCell id="k_AekQBZjhVLjZ5sFI8h-23" value="" style="whiteSpace=wrap;html=1;aspect=fixed;" parent="1" vertex="1">
                    <mxGeometry x="430" y="-5780" width="90" as="geometry"/>
                </mxCell>
                <mxCell id="400" style="edgeStyle=none;html=1;strokeWidth=3;" parent="1" source="46" edge="1">
                    <mxGeometry relative="1" as="geometry">
                        <mxPoint x="1220" y="-1520" as="targetPoint"/>
                    </mxGeometry>
                </mxCell>
                <mxCell id="46" value="&lt;font color=&quot;#000000&quot;&gt;sales-push-ms&lt;/font&gt;" style="rounded=0;whiteSpace=wrap;html=1;fillColor=#f8cecc;gradientColor=#ea6b66;strokeColor=#b85450;" parent="1" vertex="1">
                    <mxGeometry x="1010.09" y="-1550" width="179.91" height="60" as="geometry"/>
                </mxCell>
                <mxCell id="k_AekQBZjhVLjZ5sFI8h-5" value="&lt;font color=&quot;#000000&quot;&gt;calc-price-ms&lt;/font&gt;" style="rounded=0;whiteSpace=wrap;html=1;fillColor=#fff2cc;gradientColor=#ffd966;strokeColor=#d6b656;" parent="1" vertex="1">
                    <mxGeometry x="1270" y="-1660" width="180" height="60" as="geometry"/>
                </mxCell>
                <mxCell id="227" style="edgeStyle=orthogonalEdgeStyle;html=1;entryX=0.5;entryY=0;entryDx=0;entryDy=0;fontSize=19;fontColor=#000000;strokeWidth=3;" parent="1" source="k_AekQBZjhVLjZ5sFI8h-7" target="k_AekQBZjhVLjZ5sFI8h-5" edge="1">
                    <mxGeometry relative="1" as="geometry"/>
                </mxCell>
                <mxCell id="405" style="edgeStyle=none;html=1;strokeWidth=3;" parent="1" source="k_AekQBZjhVLjZ5sFI8h-7" edge="1">
                    <mxGeometry relative="1" as="geometry">
                        <mxPoint x="1740" y="-1730" as="targetPoint"/>
                        <Array as="points">
                            <mxPoint x="1580" y="-1730"/>
                            <mxPoint x="1660" y="-1730"/>
                        </Array>
                    </mxGeometry>
                </mxCell>
                <mxCell id="k_AekQBZjhVLjZ5sFI8h-7" value="&lt;font color=&quot;#000000&quot;&gt;receipt-generator-ms&lt;/font&gt;" style="rounded=0;whiteSpace=wrap;html=1;fillColor=#f8cecc;gradientColor=#ea6b66;strokeColor=#b85450;" parent="1" vertex="1">
                    <mxGeometry x="1270" y="-1760" width="180" height="60" as="geometry"/>
                </mxCell>
                <mxCell id="282" style="edgeStyle=orthogonalEdgeStyle;html=1;entryX=0;entryY=0.5;entryDx=0;entryDy=0;fontSize=28;fontColor=#000000;strokeWidth=3;" parent="1" source="105" target="281" edge="1">
                    <mxGeometry relative="1" as="geometry"/>
                </mxCell>
                <mxCell id="105" value="&lt;font color=&quot;#000000&quot; style=&quot;font-size: 28px;&quot;&gt;Dashboard&lt;/font&gt;" style="rounded=0;whiteSpace=wrap;html=1;fillColor=#ffcd28;gradientColor=#ffa500;strokeColor=#d79b00;horizontal=0;fontSize=28;" parent="1" vertex="1">
                    <mxGeometry x="310" y="-1370" width="120" height="490" as="geometry"/>
                </mxCell>
                <mxCell id="285" style="edgeStyle=orthogonalEdgeStyle;html=1;entryX=0;entryY=0.5;entryDx=0;entryDy=0;fontSize=28;fontColor=#000000;strokeWidth=3;exitX=1;exitY=0.5;exitDx=0;exitDy=0;" parent="1" source="107" target="164" edge="1">
                    <mxGeometry relative="1" as="geometry">
                        <Array as="points">
                            <mxPoint x="1630" y="-1050"/>
                        </Array>
                        <mxPoint x="1050" y="-1080" as="sourcePoint"/>
                    </mxGeometry>
                </mxCell>
                <mxCell id="107" value="&lt;font color=&quot;#000000&quot;&gt;stream-pocessor-ms&lt;/font&gt;" style="rounded=0;whiteSpace=wrap;html=1;fillColor=#e6d0de;gradientColor=#d5739d;strokeColor=#996185;" parent="1" vertex="1">
                    <mxGeometry x="970" y="-1080" width="160" height="60" as="geometry"/>
                </mxCell>
                <mxCell id="287" style="edgeStyle=orthogonalEdgeStyle;html=1;entryX=0;entryY=0.5;entryDx=0;entryDy=0;fontSize=28;fontColor=#000000;exitX=1;exitY=0.5;exitDx=0;exitDy=0;strokeWidth=3;" parent="1" source="110" target="164" edge="1">
                    <mxGeometry relative="1" as="geometry">
                        <mxPoint x="1150" y="-1340" as="sourcePoint"/>
                        <Array as="points">
                            <mxPoint x="1630" y="-1250"/>
                        </Array>
                    </mxGeometry>
                </mxCell>
                <mxCell id="110" value="&lt;span style=&quot;color: rgb(0, 0, 0);&quot;&gt;metrics-processor-ms&lt;/span&gt;" style="rounded=0;whiteSpace=wrap;html=1;fillColor=#dae8fc;gradientColor=#7ea6e0;strokeColor=#6c8ebf;" parent="1" vertex="1">
                    <mxGeometry x="970" y="-1280" width="160" height="60" as="geometry"/>
                </mxCell>
                <mxCell id="385" style="edgeStyle=none;html=1;entryX=0;entryY=0.5;entryDx=0;entryDy=0;strokeWidth=3;fontSize=21;" parent="1" source="115" target="164" edge="1">
                    <mxGeometry relative="1" as="geometry">
                        <Array as="points">
                            <mxPoint x="2200" y="-1290"/>
                            <mxPoint x="2200" y="-1050"/>
                            <mxPoint x="1630" y="-1050"/>
                        </Array>
                    </mxGeometry>
                </mxCell>
                <mxCell id="115" value="&lt;span style=&quot;color: rgb(0, 0, 0);&quot;&gt;metrics-collector-ms&lt;/span&gt;" style="rounded=0;whiteSpace=wrap;html=1;fillColor=#a0522d;strokeColor=#6D1F00;fontColor=#ffffff;" parent="1" vertex="1">
                    <mxGeometry x="2370" y="-1320" width="160" height="60" as="geometry"/>
                </mxCell>
                <mxCell id="134" style="edgeStyle=none;html=1;entryX=0;entryY=0.5;entryDx=0;entryDy=0;fontColor=#000000;strokeWidth=3;" parent="1" source="126" target="132" edge="1">
                    <mxGeometry relative="1" as="geometry">
                        <Array as="points">
                            <mxPoint x="1100" y="-2230"/>
                            <mxPoint x="1190" y="-2230"/>
                        </Array>
                    </mxGeometry>
                </mxCell>
                <mxCell id="136" style="edgeStyle=none;html=1;entryX=0;entryY=0.5;entryDx=0;entryDy=0;fontColor=#000000;strokeWidth=3;" parent="1" source="126" target="128" edge="1">
                    <mxGeometry relative="1" as="geometry">
                        <Array as="points">
                            <mxPoint x="1100" y="-2135"/>
                        </Array>
                    </mxGeometry>
                </mxCell>
                <mxCell id="137" style="edgeStyle=none;html=1;entryX=0;entryY=0.5;entryDx=0;entryDy=0;fontColor=#000000;strokeWidth=3;" parent="1" source="126" target="133" edge="1">
                    <mxGeometry relative="1" as="geometry"/>
                </mxCell>
                <mxCell id="138" style="edgeStyle=none;html=1;entryX=0;entryY=0.5;entryDx=0;entryDy=0;fontColor=#000000;strokeWidth=3;" parent="1" source="126" target="129" edge="1">
                    <mxGeometry relative="1" as="geometry">
                        <Array as="points">
                            <mxPoint x="1100" y="-1952"/>
                        </Array>
                    </mxGeometry>
                </mxCell>
                <mxCell id="139" style="edgeStyle=none;html=1;entryX=0;entryY=0.5;entryDx=0;entryDy=0;fontColor=#000000;strokeWidth=3;" parent="1" source="126" target="130" edge="1">
                    <mxGeometry relative="1" as="geometry">
                        <Array as="points">
                            <mxPoint x="1100" y="-1860"/>
                        </Array>
                    </mxGeometry>
                </mxCell>
                <mxCell id="126" value="&lt;span style=&quot;color: rgb(0, 0, 0);&quot;&gt;data-export-manager-ms&lt;/span&gt;" style="rounded=0;whiteSpace=wrap;html=1;fillColor=#ffcd28;gradientColor=#ffa500;strokeColor=#d79b00;" parent="1" vertex="1">
                    <mxGeometry x="1010" y="-2075" width="180" height="60" as="geometry"/>
                </mxCell>
                <mxCell id="322" style="edgeStyle=none;html=1;entryX=0;entryY=0.5;entryDx=0;entryDy=0;strokeWidth=3;" parent="1" source="128" target="318" edge="1">
                    <mxGeometry relative="1" as="geometry">
                        <Array as="points">
                            <mxPoint x="1490" y="-2137"/>
                            <mxPoint x="1490" y="-2045"/>
                        </Array>
                    </mxGeometry>
                </mxCell>
                <mxCell id="128" value="&lt;span style=&quot;color: rgb(0, 0, 0);&quot;&gt;data-export-xlsx-ms&lt;/span&gt;" style="rounded=0;whiteSpace=wrap;html=1;fillColor=#d0cee2;strokeColor=#56517e;" parent="1" vertex="1">
                    <mxGeometry x="1270" y="-2167" width="180" height="60" as="geometry"/>
                </mxCell>
                <mxCell id="324" style="edgeStyle=none;html=1;entryX=0;entryY=0.5;entryDx=0;entryDy=0;strokeWidth=3;" parent="1" source="129" target="318" edge="1">
                    <mxGeometry relative="1" as="geometry">
                        <Array as="points">
                            <mxPoint x="1490" y="-1952"/>
                            <mxPoint x="1490" y="-2045"/>
                        </Array>
                    </mxGeometry>
                </mxCell>
                <mxCell id="129" value="&lt;span style=&quot;color: rgb(0, 0, 0);&quot;&gt;data-export-xml-ms&lt;/span&gt;" style="rounded=0;whiteSpace=wrap;html=1;fillColor=#d0cee2;strokeColor=#56517e;" parent="1" vertex="1">
                    <mxGeometry x="1270" y="-1982" width="180" height="60" as="geometry"/>
                </mxCell>
                <mxCell id="325" style="edgeStyle=none;html=1;entryX=0;entryY=0.5;entryDx=0;entryDy=0;strokeWidth=3;" parent="1" source="130" target="318" edge="1">
                    <mxGeometry relative="1" as="geometry">
                        <Array as="points">
                            <mxPoint x="1490" y="-1860"/>
                            <mxPoint x="1490" y="-2045"/>
                        </Array>
                    </mxGeometry>
                </mxCell>
                <mxCell id="130" value="&lt;span style=&quot;color: rgb(0, 0, 0);&quot;&gt;data-export-csv-ms&lt;/span&gt;" style="rounded=0;whiteSpace=wrap;html=1;fillColor=#b1ddf0;strokeColor=#10739e;" parent="1" vertex="1">
                    <mxGeometry x="1270" y="-1890" width="180" height="60" as="geometry"/>
                </mxCell>
                <mxCell id="319" style="edgeStyle=none;html=1;entryX=0;entryY=0.5;entryDx=0;entryDy=0;strokeWidth=3;" parent="1" source="132" target="318" edge="1">
                    <mxGeometry relative="1" as="geometry">
                        <Array as="points">
                            <mxPoint x="1490" y="-2230"/>
                            <mxPoint x="1490" y="-2045"/>
                        </Array>
                    </mxGeometry>
                </mxCell>
                <mxCell id="132" value="&lt;span style=&quot;color: rgb(0, 0, 0);&quot;&gt;data-export-pdf-ms&lt;/span&gt;" style="rounded=0;whiteSpace=wrap;html=1;fillColor=#b1ddf0;strokeColor=#10739e;" parent="1" vertex="1">
                    <mxGeometry x="1270" y="-2260" width="180" height="60" as="geometry"/>
                </mxCell>
                <mxCell id="323" style="edgeStyle=none;html=1;entryX=0;entryY=0.5;entryDx=0;entryDy=0;strokeWidth=3;" parent="1" source="133" target="318" edge="1">
                    <mxGeometry relative="1" as="geometry"/>
                </mxCell>
                <mxCell id="133" value="&lt;span style=&quot;color: rgb(0, 0, 0);&quot;&gt;data-export-json-ms&lt;/span&gt;" style="rounded=0;whiteSpace=wrap;html=1;fillColor=#b1ddf0;strokeColor=#10739e;" parent="1" vertex="1">
                    <mxGeometry x="1270" y="-2075" width="180" height="60" as="geometry"/>
                </mxCell>
                <mxCell id="163" value="&lt;p style=&quot;line-height: 220%; font-size: 48px;&quot;&gt;&lt;font style=&quot;font-size: 48px;&quot; color=&quot;#000000&quot;&gt;Sales Database&lt;/font&gt;&lt;/p&gt;" style="rounded=1;whiteSpace=wrap;html=1;fillColor=#d5e8d4;gradientColor=#97d077;strokeColor=#82b366;verticalAlign=middle;horizontal=0;fontSize=48;" parent="1" vertex="1">
                    <mxGeometry x="2510" y="-2700" width="120" height="700" as="geometry"/>
                </mxCell>
                <mxCell id="164" value="&lt;p style=&quot;line-height: 220%; font-size: 48px;&quot;&gt;&lt;font style=&quot;font-size: 48px;&quot; color=&quot;#000000&quot;&gt;Kafka&lt;/font&gt;&lt;/p&gt;" style="rounded=1;whiteSpace=wrap;html=1;fillColor=#dae8fc;gradientColor=#7ea6e0;strokeColor=#6c8ebf;verticalAlign=middle;horizontal=0;fontSize=48;rotation=90;arcSize=19;" parent="1" vertex="1">
                    <mxGeometry x="1570" y="-1180" width="120" height="528.75" as="geometry"/>
                </mxCell>
                <mxCell id="212" style="edgeStyle=orthogonalEdgeStyle;html=1;fontSize=19;fontColor=#000000;strokeWidth=3;" parent="1" source="165" target="233" edge="1">
                    <mxGeometry relative="1" as="geometry"/>
                </mxCell>
                <mxCell id="165" value="&lt;p style=&quot;line-height: 220%; font-size: 48px;&quot;&gt;&lt;font style=&quot;font-size: 48px;&quot; color=&quot;#000000&quot;&gt;User Interface&lt;/font&gt;&lt;/p&gt;" style="rounded=1;whiteSpace=wrap;html=1;fillColor=#f8cecc;gradientColor=#ea6b66;strokeColor=#b85450;verticalAlign=middle;horizontal=0;fontSize=48;" parent="1" vertex="1">
                    <mxGeometry x="310" y="-3130" width="120" height="610" as="geometry"/>
                </mxCell>
                <mxCell id="411" style="edgeStyle=none;html=1;entryX=0;entryY=0.75;entryDx=0;entryDy=0;strokeWidth=3;" edge="1" parent="1" source="233" target="345">
                    <mxGeometry relative="1" as="geometry">
                        <Array as="points">
                            <mxPoint x="850" y="-2825"/>
                            <mxPoint x="850" y="-3935"/>
                        </Array>
                    </mxGeometry>
                </mxCell>
                <mxCell id="412" style="edgeStyle=none;html=1;entryX=0;entryY=0.5;entryDx=0;entryDy=0;strokeWidth=3;exitX=1;exitY=0.5;exitDx=0;exitDy=0;" edge="1" parent="1" source="233" target="166">
                    <mxGeometry relative="1" as="geometry">
                        <Array as="points">
                            <mxPoint x="850" y="-2825"/>
                            <mxPoint x="850" y="-3064"/>
                        </Array>
                    </mxGeometry>
                </mxCell>
                <mxCell id="413" style="edgeStyle=none;html=1;entryX=0;entryY=0.5;entryDx=0;entryDy=0;strokeWidth=3;exitX=1;exitY=0.5;exitDx=0;exitDy=0;" edge="1" parent="1" source="233" target="126">
                    <mxGeometry relative="1" as="geometry">
                        <Array as="points">
                            <mxPoint x="850" y="-2825"/>
                            <mxPoint x="840" y="-2045"/>
                        </Array>
                    </mxGeometry>
                </mxCell>
                <mxCell id="414" style="edgeStyle=none;html=1;entryX=0;entryY=0.5;entryDx=0;entryDy=0;strokeWidth=3;" edge="1" parent="1" source="233" target="243">
                    <mxGeometry relative="1" as="geometry">
                        <Array as="points">
                            <mxPoint x="850" y="-2825"/>
                            <mxPoint x="840" y="-1730"/>
                        </Array>
                    </mxGeometry>
                </mxCell>
                <mxCell id="415" style="edgeStyle=none;html=1;entryX=0;entryY=0.5;entryDx=0;entryDy=0;strokeWidth=3;" edge="1" parent="1" source="233" target="378">
                    <mxGeometry relative="1" as="geometry">
                        <Array as="points">
                            <mxPoint x="850" y="-2825"/>
                            <mxPoint x="840" y="-1420"/>
                        </Array>
                    </mxGeometry>
                </mxCell>
                <mxCell id="416" style="edgeStyle=none;html=1;entryX=0;entryY=0.5;entryDx=0;entryDy=0;strokeWidth=3;exitX=1;exitY=0.5;exitDx=0;exitDy=0;" edge="1" parent="1" source="233" target="260">
                    <mxGeometry relative="1" as="geometry">
                        <Array as="points">
                            <mxPoint x="850" y="-2825"/>
                            <mxPoint x="850" y="-3590"/>
                        </Array>
                    </mxGeometry>
                </mxCell>
                <mxCell id="441" style="edgeStyle=none;html=1;entryX=0;entryY=0.5;entryDx=0;entryDy=0;strokeWidth=3;exitX=1;exitY=0.5;exitDx=0;exitDy=0;" edge="1" parent="1" source="233" target="439">
                    <mxGeometry relative="1" as="geometry">
                        <Array as="points">
                            <mxPoint x="850" y="-2825"/>
                            <mxPoint x="830" y="-681"/>
                            <mxPoint x="830" y="-546"/>
                        </Array>
                    </mxGeometry>
                </mxCell>
                <mxCell id="233" value="&lt;span style=&quot;color: rgb(0, 0, 0); font-size: 19px;&quot;&gt;UI-router-ms&lt;/span&gt;" style="rounded=0;whiteSpace=wrap;html=1;fillColor=#d5e8d4;gradientColor=#97d077;strokeColor=#82b366;fontSize=19;" parent="1" vertex="1">
                    <mxGeometry x="580" y="-2850" width="160" height="50" as="geometry"/>
                </mxCell>
                <mxCell id="244" style="edgeStyle=orthogonalEdgeStyle;html=1;entryX=0;entryY=0.5;entryDx=0;entryDy=0;fontSize=20;fontColor=#000000;strokeWidth=3;" parent="1" source="243" target="k_AekQBZjhVLjZ5sFI8h-7" edge="1">
                    <mxGeometry relative="1" as="geometry">
                        <Array as="points">
                            <mxPoint x="1230" y="-1730"/>
                            <mxPoint x="1230" y="-1730"/>
                        </Array>
                    </mxGeometry>
                </mxCell>
                <mxCell id="243" value="&lt;span style=&quot;color: rgb(0, 0, 0);&quot;&gt;data-reporting-manager-ms&lt;/span&gt;" style="rounded=0;whiteSpace=wrap;html=1;fillColor=#ffcd28;gradientColor=#ffa500;strokeColor=#d79b00;" parent="1" vertex="1">
                    <mxGeometry x="1010" y="-1760" width="180" height="60" as="geometry"/>
                </mxCell>
                <mxCell id="276" style="edgeStyle=orthogonalEdgeStyle;html=1;entryX=0;entryY=0.5;entryDx=0;entryDy=0;fontSize=28;fontColor=#000000;strokeWidth=3;" parent="1" edge="1">
                    <mxGeometry relative="1" as="geometry">
                        <mxPoint x="839.9099999999999" y="-620" as="sourcePoint"/>
                    </mxGeometry>
                </mxCell>
                <mxCell id="335" style="edgeStyle=none;html=1;strokeWidth=3;" parent="1" source="k_AekQBZjhVLjZ5sFI8h-2" edge="1">
                    <mxGeometry relative="1" as="geometry">
                        <mxPoint x="1740" y="-3710" as="targetPoint"/>
                    </mxGeometry>
                </mxCell>
                <mxCell id="k_AekQBZjhVLjZ5sFI8h-2" value="&lt;font color=&quot;#000000&quot;&gt;fetch-stores-ms&lt;/font&gt;" style="rounded=0;whiteSpace=wrap;html=1;fillColor=#fff2cc;gradientColor=#ffd966;strokeColor=#d6b656;" parent="1" vertex="1">
                    <mxGeometry x="1280" y="-3740" width="150" height="60" as="geometry"/>
                </mxCell>
                <mxCell id="336" style="edgeStyle=none;html=1;strokeWidth=3;" parent="1" source="k_AekQBZjhVLjZ5sFI8h-3" edge="1">
                    <mxGeometry relative="1" as="geometry">
                        <mxPoint x="1740" y="-3590" as="targetPoint"/>
                    </mxGeometry>
                </mxCell>
                <mxCell id="k_AekQBZjhVLjZ5sFI8h-3" value="&lt;font color=&quot;#050505&quot;&gt;fetch-customer-ms&lt;/font&gt;" style="rounded=0;whiteSpace=wrap;html=1;fillColor=#fff2cc;gradientColor=#ffd966;strokeColor=#d6b656;" parent="1" vertex="1">
                    <mxGeometry x="1280" y="-3620" width="150" height="60" as="geometry"/>
                </mxCell>
                <mxCell id="337" style="edgeStyle=none;html=1;strokeWidth=3;" parent="1" source="k_AekQBZjhVLjZ5sFI8h-4" edge="1">
                    <mxGeometry relative="1" as="geometry">
                        <mxPoint x="1740" y="-3470" as="targetPoint"/>
                    </mxGeometry>
                </mxCell>
                <mxCell id="k_AekQBZjhVLjZ5sFI8h-4" value="&lt;font color=&quot;#000000&quot;&gt;fetch-items-ms&lt;/font&gt;" style="rounded=0;whiteSpace=wrap;html=1;fillColor=#fff2cc;gradientColor=#ffd966;strokeColor=#d6b656;" parent="1" vertex="1">
                    <mxGeometry x="1280" y="-3500" width="150" height="60" as="geometry"/>
                </mxCell>
                <mxCell id="262" style="edgeStyle=orthogonalEdgeStyle;html=1;entryX=0;entryY=0.5;entryDx=0;entryDy=0;fontSize=28;fontColor=#000000;strokeWidth=3;" parent="1" source="260" target="k_AekQBZjhVLjZ5sFI8h-3" edge="1">
                    <mxGeometry relative="1" as="geometry"/>
                </mxCell>
                <mxCell id="263" style="edgeStyle=orthogonalEdgeStyle;html=1;entryX=0;entryY=0.5;entryDx=0;entryDy=0;fontSize=28;fontColor=#000000;strokeWidth=3;" parent="1" source="260" target="k_AekQBZjhVLjZ5sFI8h-4" edge="1">
                    <mxGeometry relative="1" as="geometry"/>
                </mxCell>
                <mxCell id="264" style="edgeStyle=orthogonalEdgeStyle;html=1;entryX=0;entryY=0.5;entryDx=0;entryDy=0;fontSize=28;fontColor=#000000;strokeWidth=3;" parent="1" source="260" target="k_AekQBZjhVLjZ5sFI8h-2" edge="1">
                    <mxGeometry relative="1" as="geometry"/>
                </mxCell>
                <mxCell id="260" value="&lt;span style=&quot;color: rgb(0, 0, 0);&quot;&gt;fetch-detailed-data-manager&lt;/span&gt;" style="rounded=0;whiteSpace=wrap;html=1;fillColor=#ffcd28;gradientColor=#ffa500;strokeColor=#d79b00;" parent="1" vertex="1">
                    <mxGeometry x="989.9100000000001" y="-3620" width="180" height="60" as="geometry"/>
                </mxCell>
                <mxCell id="283" style="edgeStyle=orthogonalEdgeStyle;html=1;entryX=0;entryY=0.5;entryDx=0;entryDy=0;fontSize=28;fontColor=#000000;strokeWidth=3;" parent="1" source="281" target="110" edge="1">
                    <mxGeometry relative="1" as="geometry"/>
                </mxCell>
                <mxCell id="284" style="edgeStyle=orthogonalEdgeStyle;html=1;entryX=0;entryY=0.5;entryDx=0;entryDy=0;fontSize=28;fontColor=#000000;strokeWidth=3;" parent="1" source="281" target="107" edge="1">
                    <mxGeometry relative="1" as="geometry"/>
                </mxCell>
                <mxCell id="281" value="&lt;span style=&quot;color: rgb(0, 0, 0);&quot;&gt;dashboard-manager-ms&lt;/span&gt;" style="rounded=0;whiteSpace=wrap;html=1;fillColor=#ffcd28;gradientColor=#ffa500;strokeColor=#d79b00;" parent="1" vertex="1">
                    <mxGeometry x="520" y="-1155" width="180" height="60" as="geometry"/>
                </mxCell>
                <mxCell id="311" style="edgeStyle=none;html=1;entryX=0;entryY=0.5;entryDx=0;entryDy=0;strokeWidth=3;" parent="1" source="197" target="163" edge="1">
                    <mxGeometry relative="1" as="geometry">
                        <Array as="points">
                            <mxPoint x="2400" y="-2700"/>
                            <mxPoint x="2400" y="-2350"/>
                        </Array>
                    </mxGeometry>
                </mxCell>
                <mxCell id="197" value="&lt;span style=&quot;color: rgb(0, 0, 0); font-size: 19px;&quot;&gt;sales-get-ms&lt;/span&gt;" style="rounded=0;whiteSpace=wrap;html=1;fillColor=#f5f5f5;gradientColor=#b3b3b3;strokeColor=#666666;fontSize=19;" parent="1" vertex="1">
                    <mxGeometry x="2110" y="-2730" width="160" height="60" as="geometry"/>
                </mxCell>
                <mxCell id="307" style="edgeStyle=none;html=1;entryX=0;entryY=0.5;entryDx=0;entryDy=0;exitX=1;exitY=0.5;exitDx=0;exitDy=0;strokeWidth=3;" parent="1" source="199" target="163" edge="1">
                    <mxGeometry relative="1" as="geometry">
                        <mxPoint x="2280" y="-2457" as="sourcePoint"/>
                        <Array as="points">
                            <mxPoint x="2400" y="-2457"/>
                            <mxPoint x="2400" y="-2350"/>
                        </Array>
                    </mxGeometry>
                </mxCell>
                <mxCell id="199" value="&lt;span style=&quot;color: rgb(0, 0, 0); font-size: 19px;&quot;&gt;sales-delete-ms&lt;/span&gt;" style="rounded=0;whiteSpace=wrap;html=1;fillColor=#f5f5f5;gradientColor=#b3b3b3;strokeColor=#666666;fontSize=19;" parent="1" vertex="1">
                    <mxGeometry x="2110" y="-2489" width="160" height="63" as="geometry"/>
                </mxCell>
                <mxCell id="309" style="edgeStyle=none;html=1;entryX=0;entryY=0.5;entryDx=0;entryDy=0;strokeWidth=3;" parent="1" source="200" target="163" edge="1">
                    <mxGeometry relative="1" as="geometry">
                        <Array as="points">
                            <mxPoint x="2400" y="-2210"/>
                            <mxPoint x="2400" y="-2350"/>
                        </Array>
                    </mxGeometry>
                </mxCell>
                <mxCell id="200" value="&lt;span style=&quot;color: rgb(0, 0, 0); font-size: 19px;&quot;&gt;sales-update-ms&lt;/span&gt;" style="rounded=0;whiteSpace=wrap;html=1;fillColor=#f5f5f5;gradientColor=#b3b3b3;strokeColor=#666666;fontSize=19;" parent="1" vertex="1">
                    <mxGeometry x="2110" y="-2240" width="160" height="57" as="geometry"/>
                </mxCell>
                <mxCell id="310" style="edgeStyle=none;html=1;strokeWidth=3;" parent="1" source="201" edge="1">
                    <mxGeometry relative="1" as="geometry">
                        <mxPoint x="2510" y="-2350" as="targetPoint"/>
                        <Array as="points">
                            <mxPoint x="2400" y="-1970"/>
                            <mxPoint x="2400" y="-2350"/>
                        </Array>
                    </mxGeometry>
                </mxCell>
                <mxCell id="201" value="&lt;span style=&quot;color: rgb(0, 0, 0); font-size: 19px;&quot;&gt;sales-save-ms&lt;/span&gt;" style="rounded=0;whiteSpace=wrap;html=1;fillColor=#f5f5f5;gradientColor=#b3b3b3;strokeColor=#666666;fontSize=19;" parent="1" vertex="1">
                    <mxGeometry x="2110" y="-2000" width="160" height="53" as="geometry"/>
                </mxCell>
                <mxCell id="302" style="edgeStyle=none;html=1;entryX=0;entryY=0.5;entryDx=0;entryDy=0;strokeWidth=3;" parent="1" source="301" target="197" edge="1">
                    <mxGeometry relative="1" as="geometry">
                        <Array as="points">
                            <mxPoint x="1980" y="-2700"/>
                        </Array>
                    </mxGeometry>
                </mxCell>
                <mxCell id="303" style="edgeStyle=none;html=1;entryX=0;entryY=0.5;entryDx=0;entryDy=0;strokeWidth=3;" parent="1" source="301" target="199" edge="1">
                    <mxGeometry relative="1" as="geometry">
                        <Array as="points">
                            <mxPoint x="1980" y="-2458"/>
                        </Array>
                    </mxGeometry>
                </mxCell>
                <mxCell id="304" style="edgeStyle=none;html=1;entryX=0;entryY=0.5;entryDx=0;entryDy=0;strokeWidth=3;" parent="1" source="301" target="200" edge="1">
                    <mxGeometry relative="1" as="geometry">
                        <Array as="points">
                            <mxPoint x="1980" y="-2211"/>
                        </Array>
                    </mxGeometry>
                </mxCell>
                <mxCell id="305" style="edgeStyle=none;html=1;entryX=0;entryY=0.5;entryDx=0;entryDy=0;strokeWidth=3;" parent="1" source="301" target="201" edge="1">
                    <mxGeometry relative="1" as="geometry">
                        <Array as="points">
                            <mxPoint x="1980" y="-1973"/>
                        </Array>
                    </mxGeometry>
                </mxCell>
                <mxCell id="317" style="edgeStyle=none;html=1;strokeWidth=3;" parent="1" source="301" edge="1">
                    <mxGeometry relative="1" as="geometry">
                        <mxPoint x="1760" y="-2350" as="targetPoint"/>
                    </mxGeometry>
                </mxCell>
                <mxCell id="301" value="&lt;span style=&quot;color: rgb(0, 0, 0);&quot;&gt;query-manager-ms&lt;/span&gt;" style="rounded=0;whiteSpace=wrap;html=1;fillColor=#ffcd28;gradientColor=#ffa500;strokeColor=#d79b00;" parent="1" vertex="1">
                    <mxGeometry x="1890" y="-2380" width="180" height="60" as="geometry"/>
                </mxCell>
                <mxCell id="390" style="edgeStyle=none;html=1;strokeWidth=3;fontSize=21;" parent="1" source="n_p32m99cEEpmiuZ1xKt-4" edge="1">
                    <mxGeometry relative="1" as="geometry">
                        <mxPoint x="1740" y="-2968" as="targetPoint"/>
                    </mxGeometry>
                </mxCell>
                <mxCell id="n_p32m99cEEpmiuZ1xKt-4" value="&lt;span style=&quot;color: rgb(0, 0, 0);&quot;&gt;search-sales-date-ms&lt;/span&gt;" style="rounded=0;whiteSpace=wrap;html=1;fillColor=#e6d0de;gradientColor=#d5739d;strokeColor=#996185;" parent="1" vertex="1">
                    <mxGeometry x="1290" y="-2998" width="160" height="60" as="geometry"/>
                </mxCell>
                <mxCell id="392" style="edgeStyle=none;html=1;strokeWidth=3;fontSize=21;" parent="1" source="n_p32m99cEEpmiuZ1xKt-7" edge="1">
                    <mxGeometry relative="1" as="geometry">
                        <mxPoint x="1740" y="-3080" as="targetPoint"/>
                    </mxGeometry>
                </mxCell>
                <mxCell id="n_p32m99cEEpmiuZ1xKt-7" value="&lt;span style=&quot;color: rgb(0, 0, 0);&quot;&gt;search-sales-location-ms&lt;/span&gt;" style="rounded=0;whiteSpace=wrap;html=1;fillColor=#e6d0de;gradientColor=#d5739d;strokeColor=#996185;" parent="1" vertex="1">
                    <mxGeometry x="1290" y="-3110" width="160" height="60" as="geometry"/>
                </mxCell>
                <mxCell id="n_p32m99cEEpmiuZ1xKt-10" value="&lt;span style=&quot;color: rgb(0, 0, 0);&quot;&gt;search-customer-router-ms&lt;/span&gt;" style="rounded=0;whiteSpace=wrap;html=1;fillColor=#f5f5f5;gradientColor=#b3b3b3;strokeColor=#666666;" parent="1" vertex="1">
                    <mxGeometry x="1290.0900000000001" y="-3222" width="160" height="60" as="geometry"/>
                </mxCell>
                <mxCell id="n_p32m99cEEpmiuZ1xKt-16" value="&lt;span style=&quot;color: rgb(0, 0, 0);&quot;&gt;search-items-router-ms&lt;/span&gt;" style="rounded=0;whiteSpace=wrap;html=1;fillColor=#f5f5f5;gradientColor=#b3b3b3;strokeColor=#666666;" parent="1" vertex="1">
                    <mxGeometry x="1290" y="-2663" width="160" height="60" as="geometry"/>
                </mxCell>
                <mxCell id="394" style="edgeStyle=none;html=1;strokeWidth=3;fontSize=21;" parent="1" source="n_p32m99cEEpmiuZ1xKt-19" edge="1">
                    <mxGeometry relative="1" as="geometry">
                        <mxPoint x="1740" y="-2745" as="targetPoint"/>
                    </mxGeometry>
                </mxCell>
                <mxCell id="n_p32m99cEEpmiuZ1xKt-19" value="&lt;span style=&quot;color: rgb(0, 0, 0);&quot;&gt;search-sales-purchase-ms&lt;/span&gt;" style="rounded=0;whiteSpace=wrap;html=1;fillColor=#e6d0de;gradientColor=#d5739d;strokeColor=#996185;" parent="1" vertex="1">
                    <mxGeometry x="1290" y="-2775" width="160" height="60" as="geometry"/>
                </mxCell>
                <mxCell id="388" style="edgeStyle=none;html=1;strokeWidth=3;fontSize=21;" parent="1" source="n_p32m99cEEpmiuZ1xKt-22" edge="1">
                    <mxGeometry relative="1" as="geometry">
                        <mxPoint x="1740" y="-2856" as="targetPoint"/>
                    </mxGeometry>
                </mxCell>
                <mxCell id="n_p32m99cEEpmiuZ1xKt-22" value="&lt;span style=&quot;color: rgb(0, 0, 0);&quot;&gt;search-sales&lt;/span&gt;&lt;font color=&quot;#000000&quot;&gt;-coupon-ms&lt;/font&gt;" style="rounded=0;whiteSpace=wrap;html=1;fillColor=#e6d0de;gradientColor=#d5739d;strokeColor=#996185;" parent="1" vertex="1">
                    <mxGeometry x="1290" y="-2886" width="160" height="60" as="geometry"/>
                </mxCell>
                <mxCell id="391" style="edgeStyle=none;html=1;strokeWidth=3;fontSize=21;" parent="1" source="n_p32m99cEEpmiuZ1xKt-26" edge="1">
                    <mxGeometry relative="1" as="geometry">
                        <mxPoint x="1740" y="-2521" as="targetPoint"/>
                    </mxGeometry>
                </mxCell>
                <mxCell id="n_p32m99cEEpmiuZ1xKt-26" value="&lt;span style=&quot;color: rgb(0, 0, 0);&quot;&gt;search-sale-ms&lt;/span&gt;" style="rounded=0;whiteSpace=wrap;html=1;fillColor=#e6d0de;gradientColor=#d5739d;strokeColor=#996185;" parent="1" vertex="1">
                    <mxGeometry x="1290" y="-2551" width="160" height="60" as="geometry"/>
                </mxCell>
                <mxCell id="389" style="edgeStyle=none;html=1;strokeWidth=3;fontSize=21;" parent="1" source="n_p32m99cEEpmiuZ1xKt-29" edge="1">
                    <mxGeometry relative="1" as="geometry">
                        <mxPoint x="1740" y="-2409" as="targetPoint"/>
                    </mxGeometry>
                </mxCell>
                <mxCell id="n_p32m99cEEpmiuZ1xKt-29" value="&lt;span style=&quot;color: rgb(0, 0, 0);&quot;&gt;search-sales-free-text-ms&lt;/span&gt;" style="rounded=0;whiteSpace=wrap;html=1;fillColor=#e6d0de;gradientColor=#d5739d;strokeColor=#996185;" parent="1" vertex="1">
                    <mxGeometry x="1290.0900000000001" y="-2439" width="160" height="60" as="geometry"/>
                </mxCell>
                <mxCell id="393" style="edgeStyle=none;html=1;strokeWidth=3;fontSize=21;" parent="1" source="oRM4DhLdFYv9oafPMZ9c-1" edge="1">
                    <mxGeometry relative="1" as="geometry">
                        <mxPoint x="1740" y="-3304" as="targetPoint"/>
                    </mxGeometry>
                </mxCell>
                <mxCell id="oRM4DhLdFYv9oafPMZ9c-1" value="&lt;span style=&quot;color: rgb(0, 0, 0);&quot;&gt;search-sales-all-ms&lt;/span&gt;" style="rounded=0;whiteSpace=wrap;html=1;fillColor=#e6d0de;gradientColor=#d5739d;strokeColor=#996185;" parent="1" vertex="1">
                    <mxGeometry x="1290" y="-3334" width="160" height="60" as="geometry"/>
                </mxCell>
                <mxCell id="330" style="edgeStyle=none;html=1;strokeWidth=3;" parent="1" source="13" edge="1">
                    <mxGeometry relative="1" as="geometry">
                        <mxPoint x="1740" y="-2793" as="targetPoint"/>
                    </mxGeometry>
                </mxCell>
                <mxCell id="13" value="&lt;span style=&quot;color: rgb(0, 0, 0);&quot;&gt;search-items-name-ms&lt;/span&gt;" style="rounded=0;whiteSpace=wrap;html=1;fillColor=#ffcd28;gradientColor=#ffa500;strokeColor=#d79b00;" parent="1" vertex="1">
                    <mxGeometry x="1530" y="-2823" width="160" height="60" as="geometry"/>
                </mxCell>
                <mxCell id="187" style="edgeStyle=orthogonalEdgeStyle;html=1;entryX=0;entryY=0.5;entryDx=0;entryDy=0;fontSize=48;fontColor=#000000;strokeWidth=3;" parent="1" source="n_p32m99cEEpmiuZ1xKt-16" target="13" edge="1">
                    <mxGeometry relative="1" as="geometry"/>
                </mxCell>
                <mxCell id="329" style="edgeStyle=none;html=1;strokeWidth=3;" parent="1" source="14" edge="1">
                    <mxGeometry relative="1" as="geometry">
                        <mxPoint x="1740" y="-2683" as="targetPoint"/>
                    </mxGeometry>
                </mxCell>
                <mxCell id="14" value="&lt;span style=&quot;color: rgb(0, 0, 0);&quot;&gt;search-items-tags-ms&lt;/span&gt;" style="rounded=0;whiteSpace=wrap;html=1;fillColor=#ffcd28;gradientColor=#ffa500;strokeColor=#d79b00;" parent="1" vertex="1">
                    <mxGeometry x="1530" y="-2713" width="160" height="60" as="geometry"/>
                </mxCell>
                <mxCell id="188" style="edgeStyle=orthogonalEdgeStyle;html=1;entryX=0;entryY=0.5;entryDx=0;entryDy=0;fontSize=48;fontColor=#000000;strokeWidth=3;" parent="1" source="n_p32m99cEEpmiuZ1xKt-16" target="14" edge="1">
                    <mxGeometry relative="1" as="geometry"/>
                </mxCell>
                <mxCell id="328" style="edgeStyle=none;html=1;strokeWidth=3;" parent="1" source="15" edge="1">
                    <mxGeometry relative="1" as="geometry">
                        <mxPoint x="1740" y="-2580" as="targetPoint"/>
                    </mxGeometry>
                </mxCell>
                <mxCell id="15" value="&lt;span style=&quot;color: rgb(0, 0, 0);&quot;&gt;search-items-price-ms&lt;/span&gt;" style="rounded=0;whiteSpace=wrap;html=1;fillColor=#ffcd28;gradientColor=#ffa500;strokeColor=#d79b00;" parent="1" vertex="1">
                    <mxGeometry x="1530" y="-2610" width="160" height="60" as="geometry"/>
                </mxCell>
                <mxCell id="189" style="edgeStyle=orthogonalEdgeStyle;html=1;entryX=0;entryY=0.5;entryDx=0;entryDy=0;fontSize=48;fontColor=#000000;strokeWidth=3;" parent="1" source="n_p32m99cEEpmiuZ1xKt-16" target="15" edge="1">
                    <mxGeometry relative="1" as="geometry"/>
                </mxCell>
                <mxCell id="327" style="edgeStyle=none;html=1;strokeWidth=3;" parent="1" source="16" edge="1">
                    <mxGeometry relative="1" as="geometry">
                        <mxPoint x="1740" y="-2473" as="targetPoint"/>
                    </mxGeometry>
                </mxCell>
                <mxCell id="16" value="&lt;span style=&quot;color: rgb(0, 0, 0);&quot;&gt;search-items-quantity-ms&lt;/span&gt;" style="rounded=0;whiteSpace=wrap;html=1;fillColor=#ffcd28;gradientColor=#ffa500;strokeColor=#d79b00;" parent="1" vertex="1">
                    <mxGeometry x="1530" y="-2503" width="160" height="60" as="geometry"/>
                </mxCell>
                <mxCell id="190" style="edgeStyle=orthogonalEdgeStyle;html=1;entryX=0;entryY=0.5;entryDx=0;entryDy=0;fontSize=48;fontColor=#000000;strokeWidth=3;" parent="1" source="n_p32m99cEEpmiuZ1xKt-16" target="16" edge="1">
                    <mxGeometry relative="1" as="geometry"/>
                </mxCell>
                <mxCell id="178" style="edgeStyle=orthogonalEdgeStyle;html=1;entryX=0;entryY=0.5;entryDx=0;entryDy=0;fontSize=48;fontColor=#000000;strokeWidth=3;" parent="1" source="166" target="oRM4DhLdFYv9oafPMZ9c-1" edge="1">
                    <mxGeometry relative="1" as="geometry"/>
                </mxCell>
                <mxCell id="179" style="edgeStyle=orthogonalEdgeStyle;html=1;entryX=0;entryY=0.5;entryDx=0;entryDy=0;fontSize=48;fontColor=#000000;strokeWidth=3;" parent="1" source="166" target="n_p32m99cEEpmiuZ1xKt-10" edge="1">
                    <mxGeometry relative="1" as="geometry"/>
                </mxCell>
                <mxCell id="180" style="edgeStyle=orthogonalEdgeStyle;html=1;entryX=0;entryY=0.5;entryDx=0;entryDy=0;fontSize=48;fontColor=#000000;strokeWidth=3;" parent="1" source="166" target="n_p32m99cEEpmiuZ1xKt-7" edge="1">
                    <mxGeometry relative="1" as="geometry"/>
                </mxCell>
                <mxCell id="181" style="edgeStyle=orthogonalEdgeStyle;html=1;entryX=0;entryY=0.5;entryDx=0;entryDy=0;fontSize=48;fontColor=#000000;strokeWidth=3;" parent="1" source="166" target="n_p32m99cEEpmiuZ1xKt-4" edge="1">
                    <mxGeometry relative="1" as="geometry"/>
                </mxCell>
                <mxCell id="182" style="edgeStyle=orthogonalEdgeStyle;html=1;entryX=0;entryY=0.5;entryDx=0;entryDy=0;fontSize=48;fontColor=#000000;strokeWidth=3;" parent="1" source="166" target="n_p32m99cEEpmiuZ1xKt-22" edge="1">
                    <mxGeometry relative="1" as="geometry"/>
                </mxCell>
                <mxCell id="183" style="edgeStyle=orthogonalEdgeStyle;html=1;entryX=0;entryY=0.5;entryDx=0;entryDy=0;fontSize=48;fontColor=#000000;strokeWidth=3;" parent="1" source="166" target="n_p32m99cEEpmiuZ1xKt-19" edge="1">
                    <mxGeometry relative="1" as="geometry"/>
                </mxCell>
                <mxCell id="184" style="edgeStyle=orthogonalEdgeStyle;html=1;entryX=0;entryY=0.5;entryDx=0;entryDy=0;fontSize=48;fontColor=#000000;strokeWidth=3;" parent="1" source="166" target="n_p32m99cEEpmiuZ1xKt-16" edge="1">
                    <mxGeometry relative="1" as="geometry"/>
                </mxCell>
                <mxCell id="185" style="edgeStyle=orthogonalEdgeStyle;html=1;fontSize=48;fontColor=#000000;entryX=0;entryY=0.5;entryDx=0;entryDy=0;strokeWidth=3;" parent="1" source="166" target="n_p32m99cEEpmiuZ1xKt-26" edge="1">
                    <mxGeometry relative="1" as="geometry">
                        <mxPoint x="1170.0000000000002" y="-2594" as="targetPoint"/>
                    </mxGeometry>
                </mxCell>
                <mxCell id="186" style="edgeStyle=orthogonalEdgeStyle;html=1;entryX=0;entryY=0.5;entryDx=0;entryDy=0;fontSize=48;fontColor=#000000;strokeWidth=3;" parent="1" source="166" target="n_p32m99cEEpmiuZ1xKt-29" edge="1">
                    <mxGeometry relative="1" as="geometry"/>
                </mxCell>
                <mxCell id="166" value="&lt;font color=&quot;#000000&quot;&gt;search-sales-router-ms&lt;/font&gt;" style="rounded=0;whiteSpace=wrap;html=1;fillColor=#ffcd28;gradientColor=#ffa500;strokeColor=#d79b00;" parent="1" vertex="1">
                    <mxGeometry x="990" y="-3094" width="180" height="60" as="geometry"/>
                </mxCell>
                <mxCell id="334" style="edgeStyle=none;html=1;strokeWidth=3;" parent="1" source="25" edge="1">
                    <mxGeometry relative="1" as="geometry">
                        <mxPoint x="1740" y="-3354" as="targetPoint"/>
                    </mxGeometry>
                </mxCell>
                <mxCell id="25" value="&lt;span style=&quot;color: rgb(0, 0, 0);&quot;&gt;search-customer-gender-ms&lt;/span&gt;" style="rounded=0;whiteSpace=wrap;html=1;fillColor=#d5e8d4;gradientColor=#97d077;strokeColor=#82b366;" parent="1" vertex="1">
                    <mxGeometry x="1520" y="-3384" width="180" height="60" as="geometry"/>
                </mxCell>
                <mxCell id="193" style="edgeStyle=orthogonalEdgeStyle;html=1;entryX=0;entryY=0.5;entryDx=0;entryDy=0;fontSize=48;fontColor=#000000;strokeWidth=3;" parent="1" source="n_p32m99cEEpmiuZ1xKt-10" target="25" edge="1">
                    <mxGeometry relative="1" as="geometry"/>
                </mxCell>
                <mxCell id="333" style="edgeStyle=none;html=1;strokeWidth=3;" parent="1" source="26" edge="1">
                    <mxGeometry relative="1" as="geometry">
                        <mxPoint x="1740" y="-3244" as="targetPoint"/>
                    </mxGeometry>
                </mxCell>
                <mxCell id="26" value="&lt;span style=&quot;color: rgb(0, 0, 0);&quot;&gt;search-customer-age-ms&lt;/span&gt;" style="rounded=0;whiteSpace=wrap;html=1;fillColor=#d5e8d4;gradientColor=#97d077;strokeColor=#82b366;" parent="1" vertex="1">
                    <mxGeometry x="1520" y="-3274" width="180" height="60" as="geometry"/>
                </mxCell>
                <mxCell id="194" style="edgeStyle=orthogonalEdgeStyle;html=1;fontSize=48;fontColor=#000000;strokeWidth=3;" parent="1" source="n_p32m99cEEpmiuZ1xKt-10" target="26" edge="1">
                    <mxGeometry relative="1" as="geometry"/>
                </mxCell>
                <mxCell id="332" style="edgeStyle=none;html=1;strokeWidth=3;" parent="1" source="27" edge="1">
                    <mxGeometry relative="1" as="geometry">
                        <mxPoint x="1740" y="-3141" as="targetPoint"/>
                    </mxGeometry>
                </mxCell>
                <mxCell id="27" value="&lt;span style=&quot;color: rgb(0, 0, 0);&quot;&gt;search-customer-email-ms&lt;/span&gt;" style="rounded=0;whiteSpace=wrap;html=1;fillColor=#d5e8d4;gradientColor=#97d077;strokeColor=#82b366;" parent="1" vertex="1">
                    <mxGeometry x="1520" y="-3171" width="180" height="60" as="geometry"/>
                </mxCell>
                <mxCell id="195" style="edgeStyle=orthogonalEdgeStyle;html=1;fontSize=48;fontColor=#000000;strokeWidth=3;" parent="1" source="n_p32m99cEEpmiuZ1xKt-10" target="27" edge="1">
                    <mxGeometry relative="1" as="geometry"/>
                </mxCell>
                <mxCell id="331" style="edgeStyle=none;html=1;strokeWidth=3;" parent="1" source="28" edge="1">
                    <mxGeometry relative="1" as="geometry">
                        <mxPoint x="1740" y="-3034" as="targetPoint"/>
                    </mxGeometry>
                </mxCell>
                <mxCell id="28" value="&lt;font color=&quot;#000000&quot;&gt;search-customer-satisfaction&lt;/font&gt;&lt;font color=&quot;#000000&quot;&gt;-ms&lt;/font&gt;" style="rounded=0;whiteSpace=wrap;html=1;fillColor=#d5e8d4;gradientColor=#97d077;strokeColor=#82b366;" parent="1" vertex="1">
                    <mxGeometry x="1520" y="-3064" width="180" height="60" as="geometry"/>
                </mxCell>
                <mxCell id="196" style="edgeStyle=orthogonalEdgeStyle;html=1;entryX=0;entryY=0.5;entryDx=0;entryDy=0;fontSize=48;fontColor=#000000;strokeWidth=3;" parent="1" source="n_p32m99cEEpmiuZ1xKt-10" target="28" edge="1">
                    <mxGeometry relative="1" as="geometry"/>
                </mxCell>
                <mxCell id="315" value="" style="endArrow=none;html=1;strokeWidth=3;shape=flexArrow;" parent="1" edge="1">
                    <mxGeometry width="50" height="50" relative="1" as="geometry">
                        <mxPoint x="1750" y="-1640" as="sourcePoint"/>
                        <mxPoint x="1750" y="-4130" as="targetPoint"/>
                    </mxGeometry>
                </mxCell>
                <mxCell id="326" style="edgeStyle=none;html=1;strokeWidth=3;" parent="1" source="318" edge="1">
                    <mxGeometry relative="1" as="geometry">
                        <mxPoint x="1740" y="-2045" as="targetPoint"/>
                        <Array as="points">
                            <mxPoint x="1730" y="-2045"/>
                        </Array>
                    </mxGeometry>
                </mxCell>
                <mxCell id="318" value="&lt;span style=&quot;color: rgb(0, 0, 0);&quot;&gt;data-export-data-collector-ms&lt;/span&gt;" style="rounded=0;whiteSpace=wrap;html=1;fillColor=#d5e8d4;gradientColor=#97d077;strokeColor=#82b366;" parent="1" vertex="1">
                    <mxGeometry x="1530" y="-2075" width="180" height="60" as="geometry"/>
                </mxCell>
                <mxCell id="338" value="&lt;p style=&quot;line-height: 220%; font-size: 48px;&quot;&gt;&lt;font style=&quot;font-size: 48px;&quot; color=&quot;#000000&quot;&gt;Historical Sales&amp;nbsp;&lt;/font&gt;&lt;span style=&quot;color: rgb(0, 0, 0);&quot;&gt;Database&lt;/span&gt;&lt;/p&gt;" style="rounded=1;whiteSpace=wrap;html=1;fillColor=#d5e8d4;gradientColor=#97d077;strokeColor=#82b366;verticalAlign=middle;horizontal=0;fontSize=48;" parent="1" vertex="1">
                    <mxGeometry x="2510" y="-3620" width="120" height="700" as="geometry"/>
                </mxCell>
                <mxCell id="421" style="edgeStyle=none;html=1;strokeWidth=3;" edge="1" parent="1" source="339">
                    <mxGeometry relative="1" as="geometry">
                        <mxPoint x="1740" y="-4080" as="targetPoint"/>
                    </mxGeometry>
                </mxCell>
                <mxCell id="339" value="&lt;span style=&quot;color: rgb(0, 0, 0);&quot;&gt;data-archive-data-ms&lt;/span&gt;" style="rounded=0;whiteSpace=wrap;html=1;fillColor=#d0cee2;strokeColor=#56517e;rotation=0;" parent="1" vertex="1">
                    <mxGeometry x="1439.95" y="-4110" width="180" height="60" as="geometry"/>
                </mxCell>
                <mxCell id="422" style="edgeStyle=none;html=1;strokeWidth=3;" edge="1" parent="1" source="340">
                    <mxGeometry relative="1" as="geometry">
                        <mxPoint x="1740" y="-3860" as="targetPoint"/>
                    </mxGeometry>
                </mxCell>
                <mxCell id="340" value="&lt;span style=&quot;color: rgb(0, 0, 0);&quot;&gt;data-restore-data-ms&lt;/span&gt;" style="rounded=0;whiteSpace=wrap;html=1;fillColor=#1ba1e2;strokeColor=#006EAF;rotation=0;fontColor=#ffffff;" parent="1" vertex="1">
                    <mxGeometry x="1439.95" y="-3890" width="180" height="60" as="geometry"/>
                </mxCell>
                <mxCell id="419" style="edgeStyle=none;html=1;entryX=0;entryY=0.5;entryDx=0;entryDy=0;strokeWidth=3;exitX=1;exitY=0.5;exitDx=0;exitDy=0;" edge="1" parent="1" source="345" target="339">
                    <mxGeometry relative="1" as="geometry">
                        <Array as="points">
                            <mxPoint x="1310" y="-3950"/>
                            <mxPoint x="1310" y="-4080"/>
                        </Array>
                    </mxGeometry>
                </mxCell>
                <mxCell id="420" style="edgeStyle=none;html=1;entryX=0;entryY=0.5;entryDx=0;entryDy=0;strokeWidth=3;" edge="1" parent="1" source="345" target="340">
                    <mxGeometry relative="1" as="geometry">
                        <Array as="points">
                            <mxPoint x="1310" y="-3950"/>
                            <mxPoint x="1310" y="-3860"/>
                        </Array>
                    </mxGeometry>
                </mxCell>
                <mxCell id="345" value="&lt;span style=&quot;color: rgb(0, 0, 0);&quot;&gt;archive-restore-data-manager&lt;/span&gt;" style="rounded=0;whiteSpace=wrap;html=1;fillColor=#ffcd28;gradientColor=#ffa500;strokeColor=#d79b00;" parent="1" vertex="1">
                    <mxGeometry x="990.0000000000001" y="-3980" width="180" height="60" as="geometry"/>
                </mxCell>
                <mxCell id="351" style="edgeStyle=none;html=1;entryX=0;entryY=0.5;entryDx=0;entryDy=0;strokeWidth=3;fontSize=21;" parent="1" source="349" target="350" edge="1">
                    <mxGeometry relative="1" as="geometry"/>
                </mxCell>
                <mxCell id="349" value="&lt;font color=&quot;#000000&quot;&gt;sales-source-ms&lt;/font&gt;" style="rounded=0;whiteSpace=wrap;html=1;fillColor=#f8cecc;gradientColor=#ea6b66;strokeColor=#b85450;" parent="1" vertex="1">
                    <mxGeometry x="870" y="-945.63" width="159.91" height="60" as="geometry"/>
                </mxCell>
                <mxCell id="352" style="edgeStyle=none;html=1;entryX=0.5;entryY=1;entryDx=0;entryDy=0;strokeWidth=3;fontSize=21;" parent="1" source="350" target="164" edge="1">
                    <mxGeometry relative="1" as="geometry"/>
                </mxCell>
                <mxCell id="350" value="&lt;font color=&quot;#000000&quot;&gt;kafka-connect&lt;/font&gt;" style="rounded=0;whiteSpace=wrap;html=1;fillColor=#fad9d5;strokeColor=#ae4132;" parent="1" vertex="1">
                    <mxGeometry x="1110.09" y="-945.62" width="159.91" height="60" as="geometry"/>
                </mxCell>
                <mxCell id="354" style="edgeStyle=none;html=1;entryX=0.5;entryY=0;entryDx=0;entryDy=0;strokeWidth=3;fontSize=21;" parent="1" source="353" target="164" edge="1">
                    <mxGeometry relative="1" as="geometry"/>
                </mxCell>
                <mxCell id="353" value="&lt;font color=&quot;#000000&quot;&gt;kafka-stream&lt;/font&gt;" style="rounded=0;whiteSpace=wrap;html=1;fillColor=#d0cee2;strokeColor=#56517e;" parent="1" vertex="1">
                    <mxGeometry x="2030" y="-945.62" width="159.91" height="60" as="geometry"/>
                </mxCell>
                <mxCell id="375" style="edgeStyle=none;html=1;entryX=0;entryY=0.5;entryDx=0;entryDy=0;strokeWidth=3;fontSize=21;" parent="1" source="355" target="164" edge="1">
                    <mxGeometry relative="1" as="geometry">
                        <Array as="points">
                            <mxPoint x="1630" y="-1520"/>
                        </Array>
                    </mxGeometry>
                </mxCell>
                <mxCell id="402" style="edgeStyle=none;html=1;strokeWidth=3;" parent="1" source="355" edge="1">
                    <mxGeometry relative="1" as="geometry">
                        <mxPoint x="1240" y="-1520" as="targetPoint"/>
                    </mxGeometry>
                </mxCell>
                <mxCell id="355" value="&lt;font color=&quot;#000000&quot;&gt;kafka-sale-producer-ms&lt;/font&gt;" style="rounded=0;whiteSpace=wrap;html=1;fillColor=#d5e8d4;gradientColor=#97d077;strokeColor=#82b366;" parent="1" vertex="1">
                    <mxGeometry x="1280.04" y="-1550" width="159.91" height="60" as="geometry"/>
                </mxCell>
                <mxCell id="367" style="edgeStyle=none;html=1;entryX=0;entryY=0.5;entryDx=0;entryDy=0;strokeWidth=3;fontSize=21;" parent="1" source="359" target="164" edge="1">
                    <mxGeometry relative="1" as="geometry">
                        <Array as="points">
                            <mxPoint x="1630" y="-1240"/>
                        </Array>
                    </mxGeometry>
                </mxCell>
                <mxCell id="368" style="edgeStyle=none;html=1;entryX=0;entryY=0.5;entryDx=0;entryDy=0;strokeWidth=3;fontSize=21;" parent="1" source="360" target="164" edge="1">
                    <mxGeometry relative="1" as="geometry">
                        <Array as="points">
                            <mxPoint x="1630" y="-1140"/>
                        </Array>
                    </mxGeometry>
                </mxCell>
                <mxCell id="369" style="edgeStyle=none;html=1;entryX=0;entryY=0.5;entryDx=0;entryDy=0;strokeWidth=3;fontSize=21;" parent="1" source="k_AekQBZjhVLjZ5sFI8h-20" target="164" edge="1">
                    <mxGeometry relative="1" as="geometry">
                        <Array as="points">
                            <mxPoint x="1630" y="-1340"/>
                        </Array>
                    </mxGeometry>
                </mxCell>
                <mxCell id="370" style="edgeStyle=none;html=1;strokeWidth=3;fontSize=21;exitX=1;exitY=0.5;exitDx=0;exitDy=0;" parent="1" source="k_AekQBZjhVLjZ5sFI8h-20" edge="1">
                    <mxGeometry relative="1" as="geometry">
                        <mxPoint x="1760" y="-1850" as="targetPoint"/>
                        <Array as="points">
                            <mxPoint x="2140" y="-1340"/>
                            <mxPoint x="2140" y="-1450"/>
                            <mxPoint x="2140" y="-1850"/>
                        </Array>
                    </mxGeometry>
                </mxCell>
                <mxCell id="371" style="edgeStyle=none;html=1;strokeWidth=3;fontSize=21;" parent="1" source="359" edge="1">
                    <mxGeometry relative="1" as="geometry">
                        <mxPoint x="1770" y="-1850" as="targetPoint"/>
                        <Array as="points">
                            <mxPoint x="2140" y="-1240"/>
                            <mxPoint x="2140" y="-1350"/>
                            <mxPoint x="2140" y="-1850"/>
                        </Array>
                    </mxGeometry>
                </mxCell>
                <mxCell id="372" style="edgeStyle=none;html=1;strokeWidth=3;fontSize=21;" parent="1" source="360" edge="1">
                    <mxGeometry relative="1" as="geometry">
                        <mxPoint x="1760" y="-1850" as="targetPoint"/>
                        <Array as="points">
                            <mxPoint x="2140" y="-1140"/>
                            <mxPoint x="2140" y="-1850"/>
                        </Array>
                    </mxGeometry>
                </mxCell>
                <mxCell id="376" style="edgeStyle=none;html=1;entryX=0;entryY=0.5;entryDx=0;entryDy=0;strokeWidth=3;fontSize=21;" parent="1" source="373" target="164" edge="1">
                    <mxGeometry relative="1" as="geometry">
                        <Array as="points">
                            <mxPoint x="1630" y="-1420"/>
                        </Array>
                    </mxGeometry>
                </mxCell>
                <mxCell id="403" style="edgeStyle=none;html=1;strokeWidth=3;" parent="1" source="373" edge="1">
                    <mxGeometry relative="1" as="geometry">
                        <mxPoint x="1240" y="-1420" as="targetPoint"/>
                    </mxGeometry>
                </mxCell>
                <mxCell id="373" value="&lt;font color=&quot;#000000&quot;&gt;kafka-sale-producer-ms&lt;/font&gt;" style="rounded=0;whiteSpace=wrap;html=1;fillColor=#d5e8d4;gradientColor=#97d077;strokeColor=#82b366;" parent="1" vertex="1">
                    <mxGeometry x="1280.04" y="-1450" width="159.91" height="60" as="geometry"/>
                </mxCell>
                <mxCell id="377" style="edgeStyle=none;html=1;entryX=0;entryY=0.5;entryDx=0;entryDy=0;strokeWidth=3;fontSize=21;" parent="1" source="374" target="164" edge="1">
                    <mxGeometry relative="1" as="geometry">
                        <Array as="points">
                            <mxPoint x="1630" y="-1330"/>
                        </Array>
                    </mxGeometry>
                </mxCell>
                <mxCell id="404" style="edgeStyle=none;html=1;strokeWidth=3;" parent="1" source="374" edge="1">
                    <mxGeometry relative="1" as="geometry">
                        <mxPoint x="1240" y="-1330" as="targetPoint"/>
                    </mxGeometry>
                </mxCell>
                <mxCell id="374" value="&lt;font color=&quot;#000000&quot;&gt;kafka-sale-producer-ms&lt;/font&gt;" style="rounded=0;whiteSpace=wrap;html=1;fillColor=#d5e8d4;gradientColor=#97d077;strokeColor=#82b366;" parent="1" vertex="1">
                    <mxGeometry x="1280.04" y="-1360" width="159.91" height="60" as="geometry"/>
                </mxCell>
                <mxCell id="401" style="edgeStyle=none;html=1;strokeWidth=3;" parent="1" source="378" edge="1">
                    <mxGeometry relative="1" as="geometry">
                        <mxPoint x="1220" y="-1420" as="targetPoint"/>
                    </mxGeometry>
                </mxCell>
                <mxCell id="378" value="&lt;span style=&quot;color: rgb(0, 0, 0);&quot;&gt;data-save-manager-ms&lt;/span&gt;" style="rounded=0;whiteSpace=wrap;html=1;fillColor=#ffcd28;gradientColor=#ffa500;strokeColor=#d79b00;" parent="1" vertex="1">
                    <mxGeometry x="1010" y="-1450" width="180" height="60" as="geometry"/>
                </mxCell>
                <mxCell id="384" style="edgeStyle=none;html=1;entryX=0;entryY=0.5;entryDx=0;entryDy=0;strokeWidth=3;fontSize=21;" parent="1" source="380" target="164" edge="1">
                    <mxGeometry relative="1" as="geometry">
                        <Array as="points">
                            <mxPoint x="2200" y="-1160"/>
                            <mxPoint x="2200" y="-1050"/>
                            <mxPoint x="1630" y="-1050"/>
                        </Array>
                    </mxGeometry>
                </mxCell>
                <mxCell id="380" value="&lt;span style=&quot;color: rgb(0, 0, 0);&quot;&gt;metrics-collector-ms&lt;/span&gt;" style="rounded=0;whiteSpace=wrap;html=1;fillColor=#a0522d;strokeColor=#6D1F00;fontColor=#ffffff;" parent="1" vertex="1">
                    <mxGeometry x="2370" y="-1190" width="160" height="60" as="geometry"/>
                </mxCell>
                <mxCell id="383" style="edgeStyle=none;html=1;entryX=0;entryY=0.5;entryDx=0;entryDy=0;strokeWidth=3;fontSize=21;" parent="1" source="382" target="164" edge="1">
                    <mxGeometry relative="1" as="geometry">
                        <Array as="points">
                            <mxPoint x="1630" y="-1050"/>
                        </Array>
                    </mxGeometry>
                </mxCell>
                <mxCell id="382" value="&lt;span style=&quot;color: rgb(0, 0, 0);&quot;&gt;metrics-collector-ms&lt;/span&gt;" style="rounded=0;whiteSpace=wrap;html=1;fillColor=#a0522d;strokeColor=#6D1F00;fontColor=#ffffff;" parent="1" vertex="1">
                    <mxGeometry x="2370" y="-1080" width="160" height="60" as="geometry"/>
                </mxCell>
                <mxCell id="k_AekQBZjhVLjZ5sFI8h-20" value="&lt;font color=&quot;#0b0a0a&quot;&gt;kafka-sale-consumer-ms&lt;/font&gt;" style="rounded=0;whiteSpace=wrap;html=1;fillColor=#dae8fc;gradientColor=#7ea6e0;strokeColor=#6c8ebf;" parent="1" vertex="1">
                    <mxGeometry x="1870.09" y="-1370" width="159.91" height="60" as="geometry"/>
                </mxCell>
                <mxCell id="359" value="&lt;font color=&quot;#0b0a0a&quot;&gt;kafka-sale-consumer-ms&lt;/font&gt;" style="rounded=0;whiteSpace=wrap;html=1;fillColor=#dae8fc;gradientColor=#7ea6e0;strokeColor=#6c8ebf;" parent="1" vertex="1">
                    <mxGeometry x="1870.09" y="-1270" width="159.91" height="60" as="geometry"/>
                </mxCell>
                <mxCell id="360" value="&lt;font color=&quot;#0b0a0a&quot;&gt;kafka-sale-consumer-ms&lt;/font&gt;" style="rounded=0;whiteSpace=wrap;html=1;fillColor=#dae8fc;gradientColor=#7ea6e0;strokeColor=#6c8ebf;" parent="1" vertex="1">
                    <mxGeometry x="1870.09" y="-1170" width="159.91" height="60" as="geometry"/>
                </mxCell>
                <mxCell id="399" value="" style="endArrow=none;html=1;strokeWidth=3;shape=flexArrow;" parent="1" edge="1">
                    <mxGeometry width="50" height="50" relative="1" as="geometry">
                        <mxPoint x="1230" y="-1270" as="sourcePoint"/>
                        <mxPoint x="1230" y="-1570" as="targetPoint"/>
                    </mxGeometry>
                </mxCell>
                <mxCell id="423" value="&lt;span style=&quot;color: rgb(0, 0, 0); font-size: 19px;&quot;&gt;sales-get-ms&lt;/span&gt;" style="rounded=0;whiteSpace=wrap;html=1;fillColor=#f5f5f5;gradientColor=#b3b3b3;strokeColor=#666666;fontSize=19;" vertex="1" parent="1">
                    <mxGeometry x="2120" y="-3633" width="160" height="60" as="geometry"/>
                </mxCell>
                <mxCell id="424" value="&lt;span style=&quot;color: rgb(0, 0, 0); font-size: 19px;&quot;&gt;sales-delete-ms&lt;/span&gt;" style="rounded=0;whiteSpace=wrap;html=1;fillColor=#f5f5f5;gradientColor=#b3b3b3;strokeColor=#666666;fontSize=19;" vertex="1" parent="1">
                    <mxGeometry x="2120" y="-3392" width="160" height="63" as="geometry"/>
                </mxCell>
                <mxCell id="425" value="&lt;span style=&quot;color: rgb(0, 0, 0); font-size: 19px;&quot;&gt;sales-update-ms&lt;/span&gt;" style="rounded=0;whiteSpace=wrap;html=1;fillColor=#f5f5f5;gradientColor=#b3b3b3;strokeColor=#666666;fontSize=19;" vertex="1" parent="1">
                    <mxGeometry x="2120" y="-3143" width="160" height="57" as="geometry"/>
                </mxCell>
                <mxCell id="426" value="&lt;span style=&quot;color: rgb(0, 0, 0); font-size: 19px;&quot;&gt;sales-save-ms&lt;/span&gt;" style="rounded=0;whiteSpace=wrap;html=1;fillColor=#f5f5f5;gradientColor=#b3b3b3;strokeColor=#666666;fontSize=19;" vertex="1" parent="1">
                    <mxGeometry x="2120" y="-2903" width="160" height="53" as="geometry"/>
                </mxCell>
                <mxCell id="427" style="edgeStyle=none;html=1;entryX=0;entryY=0.5;entryDx=0;entryDy=0;strokeWidth=3;" edge="1" parent="1" source="431" target="423">
                    <mxGeometry relative="1" as="geometry">
                        <Array as="points">
                            <mxPoint x="1990" y="-3603"/>
                        </Array>
                    </mxGeometry>
                </mxCell>
                <mxCell id="428" style="edgeStyle=none;html=1;entryX=0;entryY=0.5;entryDx=0;entryDy=0;strokeWidth=3;" edge="1" parent="1" source="431" target="424">
                    <mxGeometry relative="1" as="geometry">
                        <Array as="points">
                            <mxPoint x="1990" y="-3361"/>
                        </Array>
                    </mxGeometry>
                </mxCell>
                <mxCell id="429" style="edgeStyle=none;html=1;entryX=0;entryY=0.5;entryDx=0;entryDy=0;strokeWidth=3;" edge="1" parent="1" source="431" target="425">
                    <mxGeometry relative="1" as="geometry">
                        <Array as="points">
                            <mxPoint x="1990" y="-3114"/>
                        </Array>
                    </mxGeometry>
                </mxCell>
                <mxCell id="430" style="edgeStyle=none;html=1;entryX=0;entryY=0.5;entryDx=0;entryDy=0;strokeWidth=3;" edge="1" parent="1" source="431" target="426">
                    <mxGeometry relative="1" as="geometry">
                        <Array as="points">
                            <mxPoint x="1990" y="-2876"/>
                        </Array>
                    </mxGeometry>
                </mxCell>
                <mxCell id="432" style="edgeStyle=none;html=1;strokeWidth=3;" edge="1" parent="1" source="431">
                    <mxGeometry relative="1" as="geometry">
                        <mxPoint x="1760" y="-3253" as="targetPoint"/>
                    </mxGeometry>
                </mxCell>
                <mxCell id="431" value="&lt;span style=&quot;color: rgb(0, 0, 0);&quot;&gt;query-manager-ms&lt;/span&gt;" style="rounded=0;whiteSpace=wrap;html=1;fillColor=#ffcd28;gradientColor=#ffa500;strokeColor=#d79b00;" vertex="1" parent="1">
                    <mxGeometry x="1900" y="-3283" width="180" height="60" as="geometry"/>
                </mxCell>
                <mxCell id="434" style="edgeStyle=none;html=1;entryX=0;entryY=0.5;entryDx=0;entryDy=0;strokeWidth=3;exitX=1;exitY=0.5;exitDx=0;exitDy=0;" edge="1" parent="1" source="423">
                    <mxGeometry relative="1" as="geometry">
                        <Array as="points">
                            <mxPoint x="2410" y="-3603"/>
                            <mxPoint x="2410" y="-3259"/>
                        </Array>
                        <mxPoint x="2280" y="-3609" as="sourcePoint"/>
                        <mxPoint x="2520" y="-3259" as="targetPoint"/>
                    </mxGeometry>
                </mxCell>
                <mxCell id="435" style="edgeStyle=none;html=1;entryX=0;entryY=0.5;entryDx=0;entryDy=0;exitX=1;exitY=0.5;exitDx=0;exitDy=0;strokeWidth=3;" edge="1" parent="1" source="424">
                    <mxGeometry relative="1" as="geometry">
                        <mxPoint x="2280" y="-3366.5" as="sourcePoint"/>
                        <Array as="points">
                            <mxPoint x="2410" y="-3360"/>
                            <mxPoint x="2410" y="-3259"/>
                        </Array>
                        <mxPoint x="2520" y="-3259" as="targetPoint"/>
                    </mxGeometry>
                </mxCell>
                <mxCell id="436" style="edgeStyle=none;html=1;entryX=0;entryY=0.5;entryDx=0;entryDy=0;strokeWidth=3;exitX=1;exitY=0.5;exitDx=0;exitDy=0;" edge="1" parent="1" source="425">
                    <mxGeometry relative="1" as="geometry">
                        <Array as="points">
                            <mxPoint x="2410" y="-3114"/>
                            <mxPoint x="2410" y="-3259"/>
                        </Array>
                        <mxPoint x="2280" y="-3119.9285714285716" as="sourcePoint"/>
                        <mxPoint x="2520" y="-3259" as="targetPoint"/>
                    </mxGeometry>
                </mxCell>
                <mxCell id="437" style="edgeStyle=none;html=1;strokeWidth=3;exitX=1;exitY=0.5;exitDx=0;exitDy=0;" edge="1" parent="1" source="426">
                    <mxGeometry relative="1" as="geometry">
                        <mxPoint x="2520" y="-3259" as="targetPoint"/>
                        <Array as="points">
                            <mxPoint x="2410" y="-2876"/>
                            <mxPoint x="2410" y="-3259"/>
                        </Array>
                        <mxPoint x="2280" y="-2881.166666666667" as="sourcePoint"/>
                    </mxGeometry>
                </mxCell>
                <mxCell id="442" style="edgeStyle=none;html=1;strokeWidth=3;" edge="1" parent="1" source="438" target="164">
                    <mxGeometry relative="1" as="geometry"/>
                </mxCell>
                <mxCell id="451" style="edgeStyle=none;html=1;entryX=0;entryY=0.5;entryDx=0;entryDy=0;strokeWidth=3;exitX=1;exitY=0.5;exitDx=0;exitDy=0;" edge="1" parent="1" source="438" target="448">
                    <mxGeometry relative="1" as="geometry">
                        <Array as="points">
                            <mxPoint x="1790" y="-670"/>
                            <mxPoint x="1790" y="-770"/>
                        </Array>
                    </mxGeometry>
                </mxCell>
                <mxCell id="457" style="edgeStyle=none;html=1;entryX=0;entryY=0.5;entryDx=0;entryDy=0;strokeWidth=3;fontSize=37;" edge="1" parent="1" source="438" target="456">
                    <mxGeometry relative="1" as="geometry">
                        <Array as="points">
                            <mxPoint x="1790" y="-670"/>
                            <mxPoint x="1790" y="-610"/>
                        </Array>
                    </mxGeometry>
                </mxCell>
                <mxCell id="438" value="&lt;font color=&quot;#0b0a0a&quot;&gt;kafka-notifier-consumer-ms&lt;/font&gt;" style="rounded=0;whiteSpace=wrap;html=1;fillColor=#dae8fc;gradientColor=#7ea6e0;strokeColor=#6c8ebf;" vertex="1" parent="1">
                    <mxGeometry x="1550.09" y="-700" width="159.91" height="60" as="geometry"/>
                </mxCell>
                <mxCell id="449" style="edgeStyle=none;html=1;entryX=0;entryY=0.5;entryDx=0;entryDy=0;strokeWidth=3;" edge="1" parent="1" source="439" target="444">
                    <mxGeometry relative="1" as="geometry"/>
                </mxCell>
                <mxCell id="439" value="&lt;span style=&quot;color: rgb(0, 0, 0);&quot;&gt;data-notifier-manager-ms&lt;/span&gt;" style="rounded=0;whiteSpace=wrap;html=1;fillColor=#ffcd28;gradientColor=#ffa500;strokeColor=#d79b00;" vertex="1" parent="1">
                    <mxGeometry x="1010" y="-575.63" width="180" height="60" as="geometry"/>
                </mxCell>
                <mxCell id="443" value="&lt;p style=&quot;line-height: 220%; font-size: 48px;&quot;&gt;&lt;font style=&quot;font-size: 48px;&quot; color=&quot;#000000&quot;&gt;Notifier Database&lt;/font&gt;&lt;/p&gt;" style="rounded=1;whiteSpace=wrap;html=1;fillColor=#d5e8d4;gradientColor=#97d077;strokeColor=#82b366;verticalAlign=middle;horizontal=0;fontSize=48;" vertex="1" parent="1">
                    <mxGeometry x="2510" y="-750" width="120" height="415" as="geometry"/>
                </mxCell>
                <mxCell id="445" style="edgeStyle=none;html=1;entryX=0;entryY=0.5;entryDx=0;entryDy=0;strokeWidth=3;" edge="1" parent="1" source="444" target="443">
                    <mxGeometry relative="1" as="geometry"/>
                </mxCell>
                <mxCell id="444" value="&lt;span style=&quot;color: rgb(0, 0, 0); font-size: 19px;&quot;&gt;notifier-data-access-ms&lt;/span&gt;" style="rounded=0;whiteSpace=wrap;html=1;fillColor=#f5f5f5;gradientColor=#b3b3b3;strokeColor=#666666;fontSize=19;" vertex="1" parent="1">
                    <mxGeometry x="2160" y="-572.63" width="220" height="57" as="geometry"/>
                </mxCell>
                <mxCell id="455" style="edgeStyle=none;html=1;entryX=0;entryY=0.5;entryDx=0;entryDy=0;strokeWidth=3;fontSize=37;" edge="1" parent="1" source="448" target="454">
                    <mxGeometry relative="1" as="geometry"/>
                </mxCell>
                <mxCell id="448" value="&lt;font color=&quot;#000000&quot;&gt;mail-notifer-sender-ms&lt;/font&gt;" style="rounded=0;whiteSpace=wrap;html=1;fillColor=#e6d0de;gradientColor=#d5739d;strokeColor=#996185;" vertex="1" parent="1">
                    <mxGeometry x="1930" y="-800" width="160" height="60" as="geometry"/>
                </mxCell>
                <mxCell id="454" value="&lt;span style=&quot;color: rgb(0, 0, 0);&quot;&gt;Mail Server&lt;/span&gt;" style="rounded=0;whiteSpace=wrap;html=1;fillColor=#b1ddf0;strokeColor=#10739e;" vertex="1" parent="1">
                    <mxGeometry x="2190" y="-800" width="180" height="60" as="geometry"/>
                </mxCell>
                <mxCell id="458" style="edgeStyle=none;html=1;entryX=0;entryY=0.5;entryDx=0;entryDy=0;strokeWidth=3;fontSize=37;exitX=1;exitY=0.5;exitDx=0;exitDy=0;" edge="1" parent="1" source="456" target="444">
                    <mxGeometry relative="1" as="geometry">
                        <Array as="points">
                            <mxPoint x="2130" y="-610"/>
                            <mxPoint x="2130" y="-544"/>
                        </Array>
                    </mxGeometry>
                </mxCell>
                <mxCell id="456" value="&lt;font color=&quot;#000000&quot;&gt;notifier-validator-ms&lt;/font&gt;" style="rounded=0;whiteSpace=wrap;html=1;fillColor=#f8cecc;gradientColor=#ea6b66;strokeColor=#b85450;" vertex="1" parent="1">
                    <mxGeometry x="1930.0900000000001" y="-640" width="159.91" height="60" as="geometry"/>
                </mxCell>
            </root>
        </mxGraphModel>
    </diagram>
</mxfile>